
        <svg xmlns="http://www.w3.org/2000/svg" xmlns:xlink="http://www.w3.org/1999/xlink" version="1.1" width="3162.1621621621625" height="800.6756756756758" viewBox="0 0 3162.1621621621625 800.6756756756758">
			
			<g transform="scale(8.108108108108109) translate(10, 10)">
				<defs id="SvgjsDefs1031"/><g id="SvgjsG1032" featureKey="symbolFeature-0" transform="matrix(0.9722222222222223,0,0,0.9722222222222223,-9.265276590983074,-13.6402784453498)" fill="#000"><path xmlns="http://www.w3.org/2000/svg" d="M14.03,50.03l13.5,13.5l13.5-13.5l-13.5-13.5L14.03,50.03 M27.53,32.03l18,18l-18,18l-18-18L27.53,32.03" style="fill-rule: evenodd; clip-rule: evenodd;"/><path xmlns="http://www.w3.org/2000/svg" d="M27.53,54.53l4.5-4.5l-4.5-4.5l-4.5,4.5L27.53,54.53 M18.53,50.03l9-9l9,9l-9,9L18.53,50.03" style="fill-rule: evenodd; clip-rule: evenodd;"/><path xmlns="http://www.w3.org/2000/svg" d="M68.03,72.53l-18-18l-18,18l18,18L68.03,72.53 M72.53,72.53l-22.5,22.5l-22.5-22.5l22.5-22.5L72.53,72.53" style="fill-rule: evenodd; clip-rule: evenodd;"/><path xmlns="http://www.w3.org/2000/svg" d="M59.03,72.53l-9-9l-9,9l9,9L59.03,72.53 M63.53,72.53l-13.5,13.5l-13.5-13.5l13.5-13.5L63.53,72.53" style="fill-rule: evenodd; clip-rule: evenodd;"/><polyline xmlns="http://www.w3.org/2000/svg" points="54.53,72.53 50.03,77.03 45.53,72.53 50.03,68.03 54.53,72.53 " style="fill-rule: evenodd; clip-rule: evenodd;"/><path xmlns="http://www.w3.org/2000/svg" d="M41.03,27.53l9,9l9-9l-9-9L41.03,27.53 M36.53,27.53l13.5-13.5l13.5,13.5l-13.5,13.5L36.53,27.53" style="fill-rule: evenodd; clip-rule: evenodd;"/><polyline xmlns="http://www.w3.org/2000/svg" points="45.53,27.53 50.03,23.03 54.53,27.53 50.03,32.03 45.53,27.53 " style="fill-rule: evenodd; clip-rule: evenodd;"/><path xmlns="http://www.w3.org/2000/svg" d="M72.53,45.53l-4.5,4.5l4.5,4.5l4.5-4.5L72.53,45.53 M81.53,50.03l-9,9l-9-9l9-9L81.53,50.03" style="fill-rule: evenodd; clip-rule: evenodd;"/></g><g id="SvgjsG1033" featureKey="nameFeature-0" transform="matrix(1.2585370965737488,0,0,1.2585370965737488,88.67262075285018,7.202119147759431)" fill="#000"><path d="M9.7852 40.25391 c-1.849 -0.078125 -3.5547 -0.57291 -5.1172 -1.4844 c-1.7708 -1.0287 -2.9752 -2.4088 -3.6133 -4.1406 l3.9844 -1.4648 c0.32553 0.85938 0.99609 1.556 2.0117 2.0898 c0.89844 0.45572 1.875 0.70963 2.9297 0.76172 c1.6276 0.065098 2.9752 -0.33203 4.043 -1.1914 c0.89844 -0.72916 1.3737 -1.5625 1.4258 -2.5 c0.078125 -1.7838 -1.7904 -3.2096 -5.6055 -4.2773 c-5.9766 -1.6797 -8.8736 -4.5248 -8.6914 -8.5352 c0.11719 -2.8125 1.3216 -4.9154 3.6133 -6.3086 c1.7448 -1.0677 3.8412 -1.543 6.2891 -1.4258 c2.9688 0.13021 5.3516 1.1654 7.1484 3.1055 l-3.1055 2.8906 c-1.0156 -1.0938 -2.4283 -1.6797 -4.2383 -1.7578 c-1.276 -0.05209 -2.3633 0.11066 -3.2617 0.48826 c-1.4063 0.59896 -2.142 1.6667 -2.207 3.2031 c-0.078125 1.7578 1.7904 3.1705 5.6055 4.2383 c3.4375 0.96354 5.8725 2.3828 7.3047 4.2578 c0.98959 1.3021 1.4518 2.7408 1.3867 4.3164 c-0.10416 2.2135 -1.1068 4.0885 -3.0078 5.625 c-1.7708 1.4193 -3.8932 2.1289 -6.3672 2.1289 c-0.18229 0 -0.35807 -0.0065041 -0.52734 -0.019531 z M27.36325625 23.984 l6.0742 0.000019073 c1.0547 0 1.9596 -0.3776 2.7148 -1.1328 c0.74219 -0.74219 1.1133 -1.6406 1.1133 -2.6953 c0 -1.0677 -0.37109 -1.9791 -1.1133 -2.7344 c-0.75521 -0.75521 -1.6602 -1.1328 -2.7148 -1.1328 l-6.0742 0 l0 7.6953 z M27.36325625 40.000019073 l-4.2383 -0.000019073 l0 -27.949 l10.313 0 c2.2266 0 4.1275 0.79428 5.7031 2.3828 c1.5885 1.5755 2.3828 3.483 2.3828 5.7227 c0 2.2266 -0.79428 4.1275 -2.3828 5.7031 c-1.5755 1.5755 -3.4766 2.3633 -5.7031 2.3633 l-6.0742 0 l0 11.777 z M44.94145625 12.050999999999998 l0 27.949 l14.258 0 l0 -4.2383 l-10.02 0 l0 -23.711 l-4.2383 0 z M78.80890625 12.050999999999998 l-17.676 27.949 l5.0195 0 l4.1211 -6.5234 l9.4922 0 l0 6.5234 l4.2578 0 l0 -27.949 l-5.2148 0 z M79.76590625 18.477 l0 10.762 l-6.8164 0 z M104.8833125 12.050999999999998 l0 19.98 l-11.934 -19.98 l-4.4336 0 l0 27.949 l4.2383 0 l0 -19.98 l11.953 19.98 l4.4336 0 l0 -27.949 l-4.2578 0 z M116.5429375 36.0937 c-2.7865 -2.7865 -4.1797 -6.1459 -4.1797 -10.078 s1.3932 -7.2916 4.1797 -10.078 s6.1459 -4.1797 10.078 -4.1797 c1.9401 0 3.7891 0.37109 5.5469 1.1133 l-1.6406 3.9258 c-1.25 -0.53385 -2.5521 -0.80078 -3.9063 -0.80078 c-2.7604 0 -5.1172 0.98307 -7.0703 2.9492 c-1.9531 1.9531 -2.9297 4.31 -2.9297 7.0703 s0.97656 5.1172 2.9297 7.0703 s4.31 2.9297 7.0703 2.9297 c0.89844 0 1.7708 -0.11068 2.6172 -0.33203 l0 -7.6172 l-4.5313 0 l0 -4.2578 l8.7891 0 l0 14.785 l-1.2891 0.54688 c-1.7838 0.75521 -3.6459 1.1328 -5.5859 1.1328 c-3.9322 0 -7.2916 -1.3932 -10.078 -4.1797 z M151.23059375 12.050999999999998 l-5.918 10.039 l-5.918 -10.039 l-4.9219 0 l8.7109 14.805 l0 13.145 l4.2578 0 l0 -13.145 l8.7109 -14.805 l-4.9219 0 z M162.7734125 23.828 l4.5313 -0.000038146 c1.0417 0 1.9271 -0.37109 2.6563 -1.1133 c0.74219 -0.72916 1.1133 -1.6146 1.1133 -2.6563 s-0.37109 -1.9271 -1.1133 -2.6563 c-0.72916 -0.74219 -1.6146 -1.1133 -2.6563 -1.1133 l-4.5313 0 l0 7.5391 z M162.7734125 35.7617 l6.0742 0.000019073 c1.0547 0 1.9596 -0.3776 2.7148 -1.1328 c0.74219 -0.75521 1.1133 -1.6667 1.1133 -2.7344 c0 -1.0547 -0.37109 -1.9531 -1.1133 -2.6953 c-0.75521 -0.75521 -1.6602 -1.1328 -2.7148 -1.1328 l-6.0742 0 l0 7.6953 z M158.5351125 39.999980927 l0.000019073 -27.949 l8.7695 0 c2.2135 0 4.1016 0.78125 5.6641 2.3438 c1.5625 1.5755 2.3438 3.4635 2.3438 5.6641 c0 1.9662 -0.6315 3.6914 -1.8945 5.1758 c1.0807 0.74219 1.9271 1.6927 2.5391 2.8516 c0.65104 1.1849 0.97656 2.4545 0.97656 3.8086 c0 2.2396 -0.79428 4.1471 -2.3828 5.7227 c-1.5755 1.5885 -3.4766 2.3828 -5.7031 2.3828 l-10.313 0 z M196.40675 12.050999999999998 l0 19.98 l-11.934 -19.98 l-4.4336 0 l0 27.949 l4.2383 0 l0 -19.98 l11.953 19.98 l4.4336 0 l0 -27.949 l-4.2578 0 z M209.374975 23.828 l4.5313 -0.000038146 c1.0417 0 1.9271 -0.37109 2.6563 -1.1133 c0.74219 -0.72916 1.1133 -1.6146 1.1133 -2.6563 s-0.37109 -1.9271 -1.1133 -2.6563 c-0.72916 -0.74219 -1.6146 -1.1133 -2.6563 -1.1133 l-4.5313 0 l0 7.5391 z M209.374975 35.7617 l6.0742 0.000019073 c1.0547 0 1.9596 -0.3776 2.7148 -1.1328 c0.74219 -0.75521 1.1133 -1.6667 1.1133 -2.7344 c0 -1.0547 -0.37109 -1.9531 -1.1133 -2.6953 c-0.75521 -0.75521 -1.6602 -1.1328 -2.7148 -1.1328 l-6.0742 0 l0 7.6953 z M205.136675 39.999980927 l0.000019073 -27.949 l8.7695 0 c2.2135 0 4.1016 0.78125 5.6641 2.3438 c1.5625 1.5755 2.3438 3.4635 2.3438 5.6641 c0 1.9662 -0.6315 3.6914 -1.8945 5.1758 c1.0807 0.74219 1.9271 1.6927 2.5391 2.8516 c0.65104 1.1849 0.97656 2.4545 0.97656 3.8086 c0 2.2396 -0.79428 4.1471 -2.3828 5.7227 c-1.5755 1.5885 -3.4766 2.3828 -5.7031 2.3828 l-10.313 0 z"/></g>
			</g>
		</svg>
	